<svg width="200" height="200" viewBox="0 0 200 200" fill="none" xmlns="http://www.w3.org/2000/svg">
  <!-- Sleek rounded rectangle base (squircle approximation) -->
  <rect width="200" height="200" rx="45" fill="url(#bg_gradient)"/>
  
  <!-- Subtle premium inner glow / border -->
  <rect x="1" y="1" width="198" height="198" rx="44" stroke="url(#border_gradient)" stroke-width="2"/>
  
  <!-- Minimalist "T" forming an upward growth curve -->
  <!-- Left horizontal bar -->
  <path d="M 55 65 L 90 65 C 101.046 65 110 73.9543 110 85 L 110 145 L 90 145 L 90 85 L 55 85 L 55 65 Z" fill="url(#mark_gradient)"/>
  
  <!-- Right upward arrow element representing growth -->
  <path d="M 125 65 L 145 65 L 145 95 C 145 106.046 136.046 115 125 115 L 125 95 C 125 95 125 85 125 65 Z" fill="#3B82F6"/>
  <circle cx="135" cy="50" r="10" fill="#60A5FA"/>

  <defs>
    <!-- Dark, elegant sleek background -->
    <linearGradient id="bg_gradient" x1="0" y1="0" x2="200" y2="200" gradientUnits="userSpaceOnUse">
      <stop stop-color="#1A1C23"/>
      <stop offset="1" stop-color="#0A0B0E"/>
    </linearGradient>
    
    <!-- Subtle metallic rim lighting -->
    <linearGradient id="border_gradient" x1="0" y1="0" x2="200" y2="200" gradientUnits="userSpaceOnUse">
      <stop stop-color="#4B5563" stop-opacity="0.8"/>
      <stop offset="1" stop-color="#1F2937" stop-opacity="0.0"/>
    </linearGradient>
    
    <!-- Silver/White branding mark -->
    <linearGradient id="mark_gradient" x1="55" y1="65" x2="145" y2="145" gradientUnits="userSpaceOnUse">
      <stop stop-color="#FFFFFF"/>
      <stop offset="1" stop-color="#9CA3AF"/>
    </linearGradient>
  </defs>
</svg>
